<svg xmlns="http://www.w3.org/2000/svg" version="1.1" xmlns:xlink="http://www.w3.org/1999/xlink" xmlns:svgjs="http://svgjs.dev/svgjs" width="1000" height="131" viewBox="0 0 1000 131"><g transform="matrix(1,0,0,1,-0.6060606060605096,-0.20064649307747118)"><svg viewBox="0 0 396 52" data-background-color="#ffffff" preserveAspectRatio="xMidYMid meet" height="131" width="1000" xmlns="http://www.w3.org/2000/svg" xmlns:xlink="http://www.w3.org/1999/xlink"><g id="tight-bounds" transform="matrix(1,0,0,1,0.23999999999995225,0.07964593618342519)"><svg viewBox="0 0 395.52 51.84070812763313" height="51.84070812763313" width="395.52"><g><svg viewBox="0 0 463.4361744071747 60.7424642324768" height="51.84070812763313" width="395.52"><g><rect width="3.963688936836357" height="44.1723419346159" x="405.8961490493098" y="8.285061148930449" fill="#111111" opacity="1" stroke-width="0" stroke="transparent" fill-opacity="1" class="rect-r$-0" data-fill-palette-color="primary" rx="1%" id="r$-0" data-palette-color="#111111"></rect></g><g transform="matrix(1,0,0,1,0,8.394942596528995)"><svg viewBox="0 0 395.52 43.95257903941881" height="43.95257903941881" width="395.52"><g id="textblocktransform"><svg viewBox="0 0 395.52 43.95257903941881" height="43.95257903941881" width="395.52" id="textblock"><g><svg viewBox="0 0 395.52 43.95257903941881" height="43.95257903941881" width="395.52"><g transform="matrix(1,0,0,1,0,0)"><svg width="395.52" viewBox="3.15 -40.85 370.32000000000005 41.300000000000004" height="43.95257903941881" data-palette-color="#111111"><g class="wordmark-text-0" data-fill-palette-color="primary" id="text-0"><path d="M8.8 0L3.15 0 3.15-40.5 13.2-40.5Q16.85-40.5 19.03-39.18 21.2-37.85 22.2-35.35 23.2-32.85 23.2-29.3L23.2-29.3Q23.2-26.1 22.08-23.75 20.95-21.4 18.75-20.13 16.55-18.85 13.25-18.85L13.25-18.85 8.8-18.85 8.8 0ZM8.8-36.45L8.8-22.9 11.4-22.9Q13.85-22.9 15.25-23.45 16.65-24 17.25-25.38 17.85-26.75 17.85-29.25L17.85-29.25Q17.85-32.15 17.43-33.7 17-35.25 15.65-35.85 14.3-36.45 11.45-36.45L11.45-36.45 8.8-36.45ZM30.25 0L24.95 0 33.55-40.5 39-40.5 47.65 0 42.3 0 40.45-10.2 32.2-10.2 30.25 0ZM36.3-32.5L32.95-14.25 39.7-14.25 36.3-32.5ZM68.39 0L50.49 0 50.49-4.05 62.39-36.45 51.24-36.45 51.24-40.5 68.39-40.5 68.39-38.05 55.84-4.05 68.39-4.05 68.39 0ZM78.44 0L72.89 0 72.89-40.5 78.44-40.5 78.44 0ZM95.34 0.45L95.34 0.45Q91.24 0.45 88.79-1.15 86.34-2.75 85.29-5.73 84.24-8.7 84.24-12.7L84.24-12.7 84.24-28.05Q84.24-32.05 85.31-34.93 86.39-37.8 88.81-39.33 91.24-40.85 95.34-40.85L95.34-40.85Q99.44-40.85 101.84-39.3 104.24-37.75 105.31-34.9 106.39-32.05 106.39-28.05L106.39-28.05 106.39-12.65Q106.39-8.7 105.31-5.75 104.24-2.8 101.84-1.18 99.44 0.45 95.34 0.45ZM95.34-4L95.34-4Q97.59-4 98.74-4.93 99.89-5.85 100.29-7.53 100.69-9.2 100.69-11.45L100.69-11.45 100.69-29.2Q100.69-31.45 100.29-33.08 99.89-34.7 98.74-35.58 97.59-36.45 95.34-36.45L95.34-36.45Q93.09-36.45 91.92-35.58 90.74-34.7 90.34-33.08 89.94-31.45 89.94-29.2L89.94-29.2 89.94-11.45Q89.94-9.2 90.34-7.53 90.74-5.85 91.92-4.93 93.09-4 95.34-4ZM116.74 0L111.94 0 111.94-40.5 115.79-40.5 127.29-13.6 127.29-40.5 131.99-40.5 131.99 0 128.39 0 116.74-27.65 116.74 0Z" fill="#111111" data-fill-palette-color="primary"></path><path d="M162.39 0L146.59 0 146.59-40.5 162.29-40.5 162.29-36.3 152.24-36.3 152.24-22.9 160.39-22.9 160.39-18.9 152.24-18.9 152.24-4.05 162.39-4.05 162.39 0ZM177.08 0.45L177.08 0.45Q172.79 0.45 170.41-1.35 168.04-3.15 167.11-6.2 166.19-9.25 166.19-13L166.19-13 166.19-27.3Q166.19-31.4 167.11-34.45 168.04-37.5 170.41-39.18 172.79-40.85 177.08-40.85L177.08-40.85Q180.89-40.85 183.11-39.45 185.33-38.05 186.31-35.45 187.29-32.85 187.29-29.2L187.29-29.2 187.29-26 181.94-26 181.94-28.85Q181.94-31.1 181.71-32.83 181.49-34.55 180.49-35.5 179.49-36.45 177.14-36.45L177.14-36.45Q174.74-36.45 173.64-35.43 172.54-34.4 172.21-32.52 171.89-30.65 171.89-28.15L171.89-28.15 171.89-12.1Q171.89-9.05 172.39-7.28 172.89-5.5 174.04-4.75 175.19-4 177.14-4L177.14-4Q179.44-4 180.44-5.03 181.44-6.05 181.69-7.85 181.94-9.65 181.94-12.05L181.94-12.05 181.94-15.05 187.29-15.05 187.29-12.05Q187.29-8.35 186.39-5.53 185.49-2.7 183.29-1.13 181.08 0.45 177.08 0.45ZM203.03 0.45L203.03 0.45Q198.93 0.45 196.48-1.15 194.03-2.75 192.98-5.73 191.93-8.7 191.93-12.7L191.93-12.7 191.93-28.05Q191.93-32.05 193.01-34.93 194.08-37.8 196.51-39.33 198.93-40.85 203.03-40.85L203.03-40.85Q207.13-40.85 209.53-39.3 211.93-37.75 213.01-34.9 214.08-32.05 214.08-28.05L214.08-28.05 214.08-12.65Q214.08-8.7 213.01-5.75 211.93-2.8 209.53-1.18 207.13 0.45 203.03 0.45ZM203.03-4L203.03-4Q205.28-4 206.43-4.93 207.58-5.85 207.98-7.53 208.38-9.2 208.38-11.45L208.38-11.45 208.38-29.2Q208.38-31.45 207.98-33.08 207.58-34.7 206.43-35.58 205.28-36.45 203.03-36.45L203.03-36.45Q200.78-36.45 199.61-35.58 198.43-34.7 198.03-33.08 197.63-31.45 197.63-29.2L197.63-29.2 197.63-11.45Q197.63-9.2 198.03-7.53 198.43-5.85 199.61-4.93 200.78-4 203.03-4ZM224.13 0L219.53 0 220.28-40.5 225.83-40.5 232.98-7.65 240.18-40.5 245.68-40.5 246.43 0 241.88 0 241.43-29.4 234.58 0 231.38 0 224.58-29.4 224.13 0ZM257.13 0L252.53 0 253.28-40.5 258.83-40.5 265.98-7.65 273.18-40.5 278.68-40.5 279.43 0 274.88 0 274.43-29.4 267.58 0 264.38 0 257.58-29.4 257.13 0ZM301.43 0L285.63 0 285.63-40.5 301.33-40.5 301.33-36.3 291.28-36.3 291.28-22.9 299.43-22.9 299.43-18.9 291.28-18.9 291.28-4.05 301.43-4.05 301.43 0ZM311.62 0L305.97 0 305.97-40.5 314.12-40.5Q318.17-40.5 320.82-39.43 323.47-38.35 324.75-35.98 326.02-33.6 326.02-29.75L326.02-29.75Q326.02-27.4 325.52-25.48 325.02-23.55 323.92-22.23 322.82-20.9 321.02-20.3L321.02-20.3 326.77 0 321.32 0 316.02-19 311.62-19 311.62 0ZM311.62-36.45L311.62-23.05 313.77-23.05Q316.17-23.05 317.67-23.65 319.17-24.25 319.87-25.7 320.57-27.15 320.57-29.75L320.57-29.75Q320.57-33.3 319.27-34.88 317.97-36.45 314.12-36.45L314.12-36.45 311.62-36.45ZM342.07 0.45L342.07 0.45Q337.77 0.45 335.4-1.35 333.02-3.15 332.1-6.2 331.17-9.25 331.17-13L331.17-13 331.17-27.3Q331.17-31.4 332.1-34.45 333.02-37.5 335.4-39.18 337.77-40.85 342.07-40.85L342.07-40.85Q345.87-40.85 348.1-39.45 350.32-38.05 351.3-35.45 352.27-32.85 352.27-29.2L352.27-29.2 352.27-26 346.92-26 346.92-28.85Q346.92-31.1 346.7-32.83 346.47-34.55 345.47-35.5 344.47-36.45 342.12-36.45L342.12-36.45Q339.72-36.45 338.62-35.43 337.52-34.4 337.2-32.52 336.87-30.65 336.87-28.15L336.87-28.15 336.87-12.1Q336.87-9.05 337.37-7.28 337.87-5.5 339.02-4.75 340.17-4 342.12-4L342.12-4Q344.42-4 345.42-5.03 346.42-6.05 346.67-7.85 346.92-9.65 346.92-12.05L346.92-12.05 346.92-15.05 352.27-15.05 352.27-12.05Q352.27-8.35 351.37-5.53 350.47-2.7 348.27-1.13 346.07 0.45 342.07 0.45ZM373.47 0L357.67 0 357.67-40.5 373.37-40.5 373.37-36.3 363.32-36.3 363.32-22.9 371.47-22.9 371.47-18.9 363.32-18.9 363.32-4.05 373.47-4.05 373.47 0Z" fill="#b45309" data-fill-palette-color="secondary"></path></g></svg></g></svg></g></svg></g></svg></g><g transform="matrix(1,0,0,1,420.23598703545605,0)"><svg viewBox="0 0 43.20018737171873 60.7424642324768" height="60.7424642324768" width="43.20018737171873"><g><svg xmlns="http://www.w3.org/2000/svg" xmlns:xlink="http://www.w3.org/1999/xlink" version="1.1" x="0" y="0" viewBox="20.699 9.25 58.852000000000004 82.75" enable-background="new 0 0 100 100" xml:space="preserve" height="60.7424642324768" width="43.20018737171873" class="icon-icon-0" data-fill-palette-color="accent" id="icon-0"><g fill="#e8772e" data-fill-palette-color="accent"><path d="M54.065 38.914c0-0.953-0.276-1.641-0.839-2.062-0.359-0.269-0.925-0.538-1.692-0.804v6.031c0.562-0.139 1.069-0.39 1.506-0.775C53.725 40.695 54.065 39.898 54.065 38.914z" fill="#e8772e" data-fill-palette-color="accent"></path><path d="M20.699 9.25V92h58.852V9.25H20.699zM44.887 25.523c1.031-0.927 2.31-1.422 3.826-1.497v-4.884c0-0.779 0.633-1.41 1.408-1.41 0.781 0 1.413 0.631 1.413 1.41v5.294c0.715 0.259 1.405 0.637 2.069 1.138v-1.346h2.46v6.106h-2.46v-1.403c-0.569-0.857-1.263-1.469-2.069-1.852v5.591c1.124 0.329 1.983 0.643 2.576 0.938 0.802 0.402 1.491 1.07 2.07 2.005 0.578 0.936 0.869 2.011 0.869 3.228 0 1.716-0.609 3.136-1.817 4.256-1.026 0.947-2.262 1.49-3.698 1.634v3.223c0 0.779-0.632 1.41-1.413 1.41-0.775 0-1.408-0.631-1.408-1.41v-3.472c-1.044-0.312-2.018-0.874-2.922-1.689v1.664h-2.52v-7.308h2.52v1.78c0.806 1.465 1.782 2.429 2.922 2.914v-6.624c-1.137-0.342-2.026-0.671-2.662-0.985-0.87-0.43-1.562-1.042-2.078-1.838-0.515-0.796-0.774-1.74-0.774-2.83C43.2 27.878 43.761 26.532 44.887 25.523zM67.602 82.142H32.649c-0.99 0-1.792-0.803-1.792-1.792 0-0.99 0.802-1.793 1.792-1.793h34.953c0.989 0 1.792 0.803 1.792 1.793C69.394 81.339 68.591 82.142 67.602 82.142zM67.602 70.192H32.649c-0.99 0-1.792-0.803-1.792-1.793 0-0.989 0.802-1.792 1.792-1.792h34.953c0.989 0 1.792 0.803 1.792 1.792C69.394 69.39 68.591 70.192 67.602 70.192zM67.602 58.243H32.649c-0.99 0-1.792-0.804-1.792-1.793s0.802-1.792 1.792-1.792h34.953c0.989 0 1.792 0.803 1.792 1.792S68.591 58.243 67.602 58.243z" fill="#e8772e" data-fill-palette-color="accent"></path><path d="M47.514 31.506c0.258 0.106 0.661 0.239 1.199 0.396v-5.264c-0.796 0.081-1.44 0.316-1.91 0.722-0.588 0.506-0.883 1.112-0.883 1.815 0 0.541 0.15 1.016 0.449 1.426C46.669 31.012 47.048 31.312 47.514 31.506z" fill="#e8772e" data-fill-palette-color="accent"></path></g></svg></g></svg></g></svg></g><defs></defs></svg><rect width="395.52" height="51.84070812763313" fill="none" stroke="none" visibility="hidden"></rect></g></svg></g></svg>